<svg xmlns="http://www.w3.org/2000/svg" width="46" height="45" viewBox="0 0 46 45" fill="none">
<path d="M17.1348 35.1451C17.1697 35.2149 17.2221 35.2848 17.2746 35.3373L17.3095 35.18L17.1348 35.1451Z" fill="#FDBA4D"/>
<path d="M37.0394 37.9233V38.0107C37.0743 37.9757 37.1093 37.9583 37.1442 37.9233H37.0394ZM29.9277 14.2644L30.0151 14.3518L30.085 14.2819C30.0151 14.2819 29.9801 14.2644 29.9277 14.2644ZM17.1372 35.145L16.8926 35.0926C16.945 35.1625 16.9799 35.2324 17.0324 35.3023C17.0498 35.3198 17.0673 35.3547 17.0848 35.3722C17.1197 35.4421 17.1722 35.4945 17.2246 35.5644C17.242 35.4945 17.2595 35.4246 17.277 35.3547V35.3373L17.3119 35.18L17.1372 35.145Z" fill="#FDBA4D"/>
<path d="M39.5537 20.1354C37.1773 16.4835 33.473 14.7711 30.0657 14.2819L29.9958 14.3518L29.9084 14.2644C27.7767 13.9848 25.7673 14.1945 24.282 14.7187L24.1248 14.7711L24.6315 16.4486L24.7887 16.4136C30.7472 14.841 35.5873 17.5494 37.6841 20.7819C37.5443 20.7819 37.422 20.7819 37.2997 20.7819C35.9367 20.6596 34.1719 20.6946 32.7566 22.04C32.7216 22.075 32.5469 22.075 32.512 22.04C31.7781 21.5682 30.9743 21.5333 30.2754 21.5508C29.9084 21.5682 29.5415 21.5682 29.1746 21.5508C28.9125 21.5508 28.6504 21.5508 28.3883 21.5508C28.196 21.5508 27.9689 21.5508 27.7942 21.6906C27.4971 21.9002 27.1826 22.1099 26.8681 22.2847C26.2565 22.6516 25.61 23.036 25.1207 23.6476L24.4393 21.0965C23.6006 17.9862 22.7444 14.7711 21.9056 11.6084C21.8532 11.4337 21.9056 11.3638 22.0629 11.224C22.5347 10.7697 22.989 10.2979 23.4433 9.82615C24.4393 8.8127 25.4527 7.7643 26.5186 6.80326C27.7767 5.63255 28.6678 4.18226 29.5415 2.78439L29.6463 2.62713C30.0832 1.9282 29.9783 1.072 29.3842 0.495383C28.8076 -0.081238 27.9864 -0.151132 27.2525 0.268229C26.8506 0.495383 26.5186 0.722536 26.2041 0.932216C26.0119 1.072 25.8022 1.19432 25.5925 1.3341C25.0858 1.6661 24.5616 1.99809 24.1248 2.41745C22.657 3.81532 21.2067 5.28308 19.8088 6.69842C19.4244 7.08284 19.0575 7.46725 18.6731 7.83419C18.5158 8.00892 18.411 8.0264 18.2013 7.97398C15.6152 7.34494 13.0117 6.7159 10.4256 6.06938C8.27642 5.54518 6.10973 5.02098 3.96051 4.49678C3.41883 4.35699 3.03442 4.46183 2.68495 4.84625C2.40538 5.14329 2.1258 5.42287 1.84623 5.71991C1.70644 5.8597 1.54918 6.01696 1.4094 6.15675C1.0774 6.48874 0.937616 6.82074 0.990036 7.13526C1.04246 7.44978 1.30456 7.6944 1.74139 7.88661C3.31399 8.58555 4.88659 9.28448 6.47667 9.96594L13.4485 13.0413L12.837 13.6703C10.7402 15.7671 8.556 17.9513 6.40678 20.0655C6.35436 20.118 6.1971 20.1529 6.03983 20.1354C5.25353 20.0306 4.41481 19.9258 3.33147 19.751C2.82474 19.6811 2.44032 19.8034 2.10833 20.1704C1.8637 20.45 1.58413 20.7121 1.32203 20.9742C1.18224 21.1139 1.02498 21.2537 0.885196 21.411C0.448362 21.8478 0.413416 22.2148 0.465836 22.4419C0.518256 22.6691 0.710463 22.9661 1.30456 23.1758L2.16075 23.4728C3.10431 23.8048 4.06535 24.1368 5.02638 24.4339C5.30595 24.5212 5.42827 24.661 5.53311 24.9581C5.98742 26.3385 6.44172 27.7014 6.80866 28.7148C6.94845 29.1342 7.21055 29.3963 7.52507 29.4662C7.83959 29.5361 8.18906 29.3963 8.50358 29.0818C8.66084 28.9245 8.8181 28.7498 8.99283 28.5925C9.23746 28.3304 9.49956 28.0683 9.76166 27.8237C10.1111 27.4917 10.2509 27.1073 10.181 26.618C10.1286 26.2511 10.0762 25.8842 10.0238 25.5347C9.95387 25.0105 9.88397 24.4688 9.77913 23.9446C9.74419 23.7175 9.77913 23.5952 9.95387 23.4204C11.6138 21.7605 13.2563 20.118 14.9163 18.458L16.7859 16.5883C16.8209 16.5534 16.8558 16.5184 16.9083 16.4835C16.9432 16.5709 16.9956 16.6582 17.0306 16.7456L22.5522 28.6974C22.8492 29.3264 23.0589 29.4837 23.6355 29.4837L23.8102 30.0254C23.985 30.5845 24.1772 31.1262 24.3519 31.6853C24.5092 32.1746 24.8761 32.4192 25.3828 32.4017C25.5925 32.4017 25.7847 32.4017 25.9944 32.4017H26.0294C26.0643 32.4017 26.0992 32.4017 26.1342 32.4017C26.1691 32.4017 26.2216 32.4017 26.2565 32.4017C26.606 32.9085 26.9554 33.4327 27.2874 33.9743C27.2874 34.0093 27.27 34.0442 27.2525 34.0792C27.235 34.1141 27.2175 34.1665 27.2175 34.2015C27.1476 34.4811 27.0778 34.7606 27.0079 35.0402C26.903 35.4596 26.7807 35.8964 26.6759 36.3158C26.571 36.7176 26.606 37.0496 26.7982 37.2768C26.9729 37.5039 27.2874 37.6263 27.7068 37.6263C28.3708 37.6263 29.0173 37.6263 29.6289 37.6263C30.2754 37.6263 30.5375 37.4341 30.7472 36.805C30.9219 36.2633 31.1141 35.7042 31.2888 35.1625C31.5335 34.4286 31.7781 33.6948 32.0227 32.9609C32.0926 32.7687 32.1625 32.6289 32.2499 32.5066C32.7566 31.7902 33.2983 31.0738 33.8225 30.3573C33.9098 30.2525 33.9972 30.2001 34.0147 30.2001C34.7311 30.1651 35.3601 30.1826 35.8669 30.6893C35.9892 30.8116 36.2513 30.9514 36.4609 30.899C36.7056 30.8291 36.8279 30.934 37.0376 31.1611L37.1075 31.231C37.1599 31.2834 37.2123 31.3359 37.2647 31.3883C37.422 31.563 37.5967 31.7377 37.7714 31.895C37.8064 31.9299 37.8413 31.9474 37.8763 31.9824C38.051 32.1571 38.2607 32.3318 38.5228 32.3843C38.6975 32.4192 38.8723 32.3843 39.0295 32.3318C37.6142 35.7391 34.6612 38.2728 31.0442 39.1639C27.3399 40.0725 23.5831 39.1639 20.7 36.6827C21.5911 36.0886 21.8707 35.18 22.1503 34.2888C22.2027 34.1141 22.2551 33.9394 22.325 33.7646C22.3425 33.7297 22.3425 33.6773 22.3599 33.6423C22.3774 33.5899 22.3949 33.5375 22.4124 33.4851C22.5871 33.0308 22.4997 32.6289 22.1328 32.2619C21.5038 31.6504 20.8398 31.0039 20.1933 30.3224C19.8787 29.9904 19.5118 29.8331 19.0575 29.8506C18.4983 29.8681 17.9217 29.8681 17.3276 29.8506C17.1354 29.8506 16.9257 29.8506 16.7335 29.8506C16.7335 29.7633 16.7161 29.6759 16.6986 29.5885C16.6636 29.274 16.6287 28.9769 16.6636 28.7148C16.6811 28.6799 16.8034 28.5925 16.8908 28.5401C16.9956 28.4702 17.083 28.4178 17.1704 28.3304C17.6771 27.8237 18.1838 27.3345 18.6731 26.8277C19.0924 26.4084 19.5293 25.989 19.9486 25.5522C20.3156 25.1852 20.3855 24.7833 20.1933 24.329C19.7215 23.2806 19.2497 22.372 18.2013 21.9002L18.4634 21.411L16.9607 20.4674L16.8733 20.6072C13.9553 24.9057 14.0776 30.7418 16.9083 35.1625L17.1529 35.2149L17.3276 35.2499L17.2927 35.4071V35.4246C17.2752 35.4945 17.2577 35.5644 17.2403 35.6343C17.6596 36.2459 18.1489 36.8225 18.6905 37.3642C21.2591 39.9502 24.7887 41.2782 28.3184 41.2782C31.3937 41.2782 34.4865 40.2647 36.9153 38.2204C36.9677 38.1854 37.0026 38.133 37.055 38.098V38.0107H37.1599C42.3145 33.3802 43.3454 25.9541 39.5537 20.1354ZM23.7753 26.9326C23.7229 26.8103 23.653 26.6879 23.6006 26.5656L22.4997 24.2067C21.0494 21.044 19.5817 17.8988 18.1139 14.7362C17.9741 14.4391 17.8169 14.2294 17.6421 14.0897C17.5373 14.0023 17.38 13.9149 17.1878 13.9149C16.9607 13.9149 16.6811 14.0198 16.3491 14.3518C14.8639 15.837 13.3786 17.3222 11.8934 18.8075L9.65682 21.044C9.18504 21.5158 8.69578 22.0051 8.224 22.4769C7.90948 22.7914 7.78717 23.1408 7.85706 23.5777C7.92696 23.9796 7.97938 24.3989 8.0318 24.7833C8.10169 25.2726 8.17158 25.7619 8.24148 26.2511C8.2939 26.5132 8.24148 26.6705 8.08422 26.8103C7.99685 26.5656 7.92696 26.321 7.83959 26.0938C7.57749 25.325 7.33286 24.5911 7.10571 23.8398C6.93098 23.2806 6.61646 22.9661 6.07478 22.7914C5.32343 22.5642 4.58955 22.3196 3.82072 22.0575C3.57609 21.9701 3.33147 21.8828 3.08684 21.8129C3.22663 21.6556 3.34894 21.6032 3.57609 21.6556C4.60702 21.8303 5.51564 21.9701 6.35436 22.04C6.6514 22.075 7.10571 21.9701 7.35034 21.7255C10.1111 18.9997 12.837 16.2913 15.6152 13.4956C15.9822 13.1286 16.0171 12.7966 15.9647 12.5869C15.9298 12.3598 15.755 12.0453 15.2133 11.8181C12.6273 10.6823 10.0412 9.54658 7.45518 8.41081L3.89061 6.83821C3.75083 6.78579 3.62851 6.7159 3.48873 6.66348C3.64599 6.4538 3.83819 6.41885 4.22261 6.50622C7.21055 7.2401 10.2509 7.97398 13.1864 8.67291C14.9163 9.09227 16.6462 9.51163 18.376 9.93099C18.9701 10.0708 19.3371 9.79121 19.5817 9.52911C20.0535 9.05733 20.5252 8.56807 20.997 8.09629C22.4298 6.646 23.9151 5.12582 25.4353 3.71048C25.9944 3.18628 26.6759 2.76692 27.3224 2.34756C27.5146 2.22524 27.6893 2.1204 27.8815 1.99809C27.0079 3.51827 25.942 4.88119 24.5965 6.13928C23.6879 6.978 22.8143 7.88661 21.9581 8.74281C21.4339 9.26701 20.8922 9.82615 20.3505 10.3504C19.9661 10.7348 19.8613 11.1367 20.001 11.6609C20.5427 13.6353 21.0669 15.6273 21.5911 17.6193C22.3425 20.4674 23.1288 23.4029 23.9151 26.2861C24.0374 26.6006 24.0024 26.7753 23.7753 26.9326ZM17.3276 23.4903C17.3451 23.5078 17.3626 23.5253 17.3975 23.5253C17.5548 23.6301 17.6946 23.7175 17.8169 23.8223C18.0091 23.997 18.1139 24.1718 18.1139 24.3465C18.1139 24.5212 18.0266 24.696 17.8343 24.9057C17.5024 25.2377 17.1704 25.5696 16.8034 25.9366L16.6462 26.0938C16.751 25.2202 16.9782 24.3815 17.3276 23.4903ZM20.4903 33.1706C20.4554 33.2579 20.4379 33.3628 20.4029 33.4501C20.1933 34.1665 20.001 34.848 19.3196 35.2848C18.3061 34.0617 17.6421 32.8735 17.2403 31.598H17.5373C18.0266 31.598 18.4634 31.598 18.9002 31.598C18.9177 31.598 18.9876 31.6329 19.075 31.7203C19.5467 32.1746 19.9836 32.6114 20.3855 33.0482C20.4379 33.0832 20.4728 33.1356 20.4903 33.1706ZM39.6236 29.2915C39.3615 29.5011 39.1169 29.7283 38.8897 29.938C38.8198 29.9904 38.7674 30.0603 38.6975 30.1127C37.9287 29.0643 36.7929 28.7673 35.6746 28.4702C35.4999 28.4178 35.3077 28.3654 35.133 28.313C34.6612 28.1732 34.137 28.2256 33.6477 28.2605C33.5254 28.278 33.4206 28.278 33.2983 28.2955C33.0711 28.313 32.8265 28.5052 32.6867 28.6974C32.0402 29.5361 31.3587 30.4447 30.555 31.5281C30.4152 31.7028 30.3453 31.9299 30.2754 32.1222C30.0133 32.9259 29.7337 33.7297 29.4716 34.5335L29.2095 35.3198C29.1396 35.5295 29.0872 35.6867 29.0348 35.7042C28.9823 35.7217 28.86 35.7217 28.6853 35.6867C28.7202 35.5819 28.7377 35.477 28.7727 35.3722C28.86 34.9878 28.9649 34.6034 29.0872 34.219C29.2444 33.7122 29.1746 33.2929 28.8775 32.8735C28.4407 32.2969 28.0912 31.7552 27.7767 31.2135C27.4447 30.6544 26.9904 30.4098 26.3788 30.4797C26.274 30.4971 26.1517 30.4971 26.0119 30.4797C25.9944 30.4797 25.9595 30.4797 25.942 30.4797C25.9245 30.4098 25.8896 30.3224 25.8546 30.2525C25.7498 29.938 25.6449 29.6584 25.5576 29.3614C25.5401 29.2915 25.5401 29.1866 25.575 29.1342C26.1866 28.2081 26.239 27.1597 26.1866 26.2686C26.1517 25.4299 26.5011 24.7659 27.27 24.1892C28.0912 23.5777 28.9125 23.3331 29.9434 23.368C30.8345 23.403 31.4636 23.5602 32.0052 23.8922C32.5294 24.2067 33.0362 24.1893 33.4555 23.8048C34.5738 22.8089 35.8319 22.4244 37.3346 22.6341C37.6491 22.6691 37.9811 22.6691 38.3306 22.6341C38.6975 22.5992 38.8548 22.704 39.0121 23.071C39.7459 24.8532 40.043 26.7054 39.9207 28.6275C39.9381 28.942 39.8333 29.1342 39.6236 29.2915Z" fill="#FDBA4D"/>
<path d="M17.0992 35.3198C17.0992 35.3373 17.0992 35.3547 17.0817 35.3722C17.0642 35.3547 17.0468 35.3198 17.0293 35.3023C17.0468 35.3023 17.0817 35.3023 17.0992 35.3198Z" fill="#FDBA4D"/>
<path d="M17.1333 35.145L16.8887 35.0926C16.9411 35.1625 16.976 35.2324 17.0285 35.3023C17.0459 35.3198 17.0634 35.3547 17.0809 35.3722C17.1158 35.4421 17.1682 35.4945 17.2207 35.5644C17.2381 35.4945 17.2556 35.4246 17.2731 35.3547V35.3372L17.308 35.18L17.1333 35.145Z" fill="#FDBA4D"/>
<path d="M24.2097 42.6236L23.7204 44.3535L23.5457 44.3186C22.3575 44.004 21.2042 43.5323 20.0161 42.8857C18.3386 41.9771 16.801 40.754 15.438 39.2688C15.3332 39.1464 15.106 39.0591 14.9313 39.0416C14.3896 39.0241 13.8654 39.0241 13.2888 39.0241C13.0791 39.0241 12.852 39.0241 12.6423 39.0241H12.4676V37.2069H13.7781C10.8076 32.4367 10.1786 27.5267 11.8211 22.1798L11.8735 22.0051L13.6208 22.5992L13.5684 22.7564C12.1356 27.4043 12.6598 31.7203 15.1759 35.9139L15.5079 34.7257L16.9058 35.0577C16.9582 35.1276 16.9932 35.1975 17.0456 35.2674C17.0631 35.2848 17.0805 35.3198 17.098 35.3373C17.133 35.4071 17.1854 35.4596 17.2378 35.5295C17.2028 35.6692 17.1679 35.8265 17.133 35.9663C16.9932 36.508 16.8709 37.0147 16.7311 37.5214C16.6612 37.7311 16.6961 37.8534 16.8534 38.0107C18.723 40.0725 21.0295 41.5578 23.7029 42.414C23.7728 42.4314 23.8427 42.4664 23.9126 42.4839L24.2097 42.6236Z" fill="#FDBA4D"/>
<path d="M29.9277 14.2644L30.0151 14.3517L30.085 14.2818C30.0151 14.2818 29.9802 14.2644 29.9277 14.2644Z" fill="#FDBA4D"/>
<path d="M45.007 23.1234L43.2422 23.6301L43.1898 23.4728C41.093 17.3397 36.847 13.6004 30.5565 12.3947C30.6264 12.4297 30.6789 12.4646 30.7488 12.4996C30.8361 12.5695 30.9235 12.6394 31.0458 12.7267C31.1157 12.7791 31.1856 12.849 31.273 12.9189L31.4477 13.0587L31.273 13.1985C31.1856 13.2684 31.0982 13.3208 31.0283 13.3732C30.8711 13.4781 30.7488 13.5829 30.6264 13.6878C30.5216 13.7926 30.4168 13.8974 30.3119 14.0372C30.2595 14.1071 30.2071 14.1595 30.1372 14.2294L30.0848 14.2993C30.0323 14.2993 29.9799 14.2819 29.9275 14.2819L29.8926 14.2469C29.7178 14.0722 29.5431 13.8974 29.3684 13.7402C28.9665 13.3383 28.5821 12.9714 28.2326 12.5695C28.0054 12.3074 27.7608 12.22 27.3939 12.2724C26.6076 12.3947 25.8213 12.4996 25 12.6044L23.8643 12.7617L23.375 11.0143L23.5672 10.9794C23.8992 10.927 24.2137 10.8745 24.5282 10.8047C25.2621 10.6649 25.9611 10.5426 26.6775 10.4901C27.6909 10.4377 28.3025 10.1581 28.7568 9.54658C28.9665 9.24953 29.2286 9.0049 29.4732 8.76027C29.578 8.65543 29.6829 8.55059 29.7877 8.44575L29.91 8.32344L31.3079 9.66889L30.3818 10.5076C37.7556 11.7832 42.5258 15.8545 44.9895 22.9661L45.007 23.1234Z" fill="#FDBA4D"/>
<path d="M37.0352 37.9233V38.0106C37.0701 37.9757 37.1051 37.9582 37.14 37.9233H37.0352Z" fill="#FDBA4D"/>
<path d="M45.4591 29.8681L45.4242 30.0603C45.3892 30.27 45.3368 30.4796 45.3019 30.7068C45.2145 31.1786 45.1271 31.6154 45.0048 32.0522C44.3234 34.6208 43.0828 36.9623 41.3354 39.0066C41.2131 39.1464 41.1257 39.3736 41.1257 39.5833C41.1083 40.1075 41.1083 40.6317 41.1083 41.1733C41.1083 41.383 41.1083 41.5927 41.1083 41.8198V41.9946H39.291V40.9811C36.4778 43.2527 33.4025 44.5457 29.8554 44.9126L29.6807 44.9301L29.5234 43.0954L29.6982 43.0779C32.7735 42.7459 35.4469 41.6626 37.8582 39.758H37.0719V38.0107C37.1069 37.9757 37.1418 37.9582 37.1768 37.9233H37.2467C37.4563 37.9233 37.6835 37.9233 37.8932 37.9233C38.4174 37.9233 38.9416 37.9233 39.4658 37.9408C39.7279 37.9408 39.8851 37.8709 40.0599 37.6612C41.8596 35.512 43.0129 33.0307 43.4846 30.3224C43.5021 30.2175 43.5196 30.1127 43.5545 29.9904L43.6244 29.6409L45.4591 29.8681Z" fill="#FDBA4D"/>
<path d="M45.6012 27.8412H43.7491L43.5918 25.4124L45.409 25.1503L45.6012 27.8412Z" fill="#FDBA4D"/>
<path d="M28.4086 43.1304V45L26.5215 44.9126L26.6787 43.1304H28.4086Z" fill="#FDBA4D"/>
</svg>