<svg xmlns="http://www.w3.org/2000/svg" width="42" height="40" viewBox="0 0 42 40" fill="none">
<path d="M41.0902 30.0258C41.0902 31.6204 41.0745 33.2307 41.0902 34.8253C41.0902 35.5288 40.7925 35.9822 40.1502 36.248C37.3302 37.4517 34.5259 38.6555 31.706 39.8593C31.2517 40.0469 30.8443 40.0469 30.39 39.8593C27.5857 38.6399 24.7658 37.4517 21.9458 36.248C21.3191 35.9822 21.0215 35.5444 21.0215 34.8566C21.0372 31.6204 21.0372 28.3999 21.0215 25.1638C21.0215 24.4915 21.3035 24.0538 21.9145 23.8036C24.7501 22.5998 27.5857 21.3804 30.4213 20.161C30.8443 19.9734 31.236 19.9734 31.659 20.161C34.4946 21.3804 37.3302 22.5998 40.1658 23.8036C40.7768 24.0694 41.0588 24.5071 41.0588 25.1638C41.0902 26.8053 41.0902 28.4155 41.0902 30.0258ZM32.317 36.8733C32.4893 36.8108 32.6146 36.7639 32.7243 36.717C34.5573 35.9353 36.3902 35.138 38.2232 34.3719C38.4895 34.2625 38.5992 34.1374 38.5835 33.8404C38.5679 31.6673 38.5835 29.4943 38.5679 27.3212C38.5679 27.2118 38.5522 27.1023 38.5522 26.9929C38.5052 26.9772 38.4895 26.9772 38.4895 26.9772C36.4842 27.8215 34.4946 28.6813 32.4893 29.5412C32.3953 29.5724 32.317 29.7288 32.317 29.8226C32.317 32.152 32.317 34.4814 32.317 36.8733ZM27.9774 28.822C27.946 28.9002 27.946 28.9158 27.946 28.9158C27.946 29.6506 27.946 30.401 27.946 31.1358C27.946 31.9644 27.429 32.5272 26.6771 32.5272C25.9407 32.5272 25.4394 31.9487 25.4394 31.1201C25.4394 30.0883 25.4394 29.0565 25.4394 28.0403C25.4394 27.9153 25.4081 27.7277 25.3454 27.6964C24.7814 27.4306 24.1861 27.1961 23.5908 26.9303C23.5751 27.0241 23.5594 27.0554 23.5594 27.1023C23.5594 29.3848 23.5594 31.6517 23.5594 33.9342C23.5594 34.1687 23.6534 34.2469 23.8414 34.325C25.7371 35.1223 27.6327 35.9353 29.5127 36.7482C29.6067 36.7795 29.7007 36.8108 29.826 36.8577C29.826 34.4814 29.826 32.1363 29.826 29.7913C29.826 29.7131 29.7633 29.5881 29.685 29.5568C29.1054 29.291 28.557 29.0565 27.9774 28.822ZM36.6409 25.0231C36.1709 24.8198 35.8262 24.6478 35.4503 24.5228C35.2623 24.4602 35.0116 24.4446 34.8393 24.5228C33.7113 25.0074 32.6146 25.539 31.5023 26.0392C30.9383 26.305 30.39 26.5551 29.7633 26.8522C30.0923 26.9929 30.3587 27.0867 30.6093 27.2274C30.907 27.3994 31.1733 27.3837 31.4866 27.2274C32.2856 26.8522 33.116 26.5239 33.9306 26.1799C34.8236 25.8047 35.6852 25.4452 36.6409 25.0231ZM31.9723 23.0689C31.424 22.6624 30.907 22.6624 30.296 22.9594C28.8704 23.6317 27.3977 24.2101 25.9564 24.8354C25.8311 24.8823 25.7057 24.9605 25.5334 25.0543C25.7684 25.1638 25.9564 25.2263 26.1131 25.3201C26.4891 25.539 26.8181 25.4921 27.2097 25.3201C28.6824 24.6166 30.1863 23.9443 31.6746 23.2565C31.7686 23.1783 31.8626 23.1158 31.9723 23.0689Z" fill="#ECAD48"/>
<path d="M27.8205 11.203C27.5542 11.5 27.3192 11.7658 27.0686 12.0003C26.5046 12.5631 25.7369 12.5787 25.2199 12.0628C24.7186 11.5469 24.7499 10.7965 25.2826 10.2493C25.5333 9.9992 25.7996 9.7647 26.0972 9.48329C23.8726 7.65417 21.3817 6.62235 18.5147 6.32531C18.5147 6.70052 18.5147 7.06009 18.5147 7.40403C18.5147 8.20134 17.9977 8.76415 17.2771 8.76415C16.5564 8.76415 16.0237 8.20134 16.0081 7.41966C16.0081 7.07572 16.0081 6.71615 16.0081 6.32531C13.1568 6.60672 10.6658 7.63853 8.42553 9.46766C8.72319 9.74906 8.98952 9.98357 9.24018 10.2493C9.75717 10.7809 9.77284 11.5469 9.27151 12.0316C8.77019 12.5475 8.00254 12.5318 7.45421 12.0003C7.20355 11.7502 6.96855 11.4844 6.70222 11.1874C4.85359 13.423 3.83527 15.9087 3.53761 18.7696C3.92927 18.7696 4.2896 18.7696 4.64992 18.7696C5.41758 18.7696 5.98157 19.3012 5.98157 20.0047C5.98157 20.7238 5.41758 21.2554 4.63426 21.271C4.2896 21.271 3.92927 21.271 3.53761 21.271C3.8196 24.1163 4.85359 26.6021 6.68656 28.8377C6.96855 28.5406 7.20355 28.2748 7.46988 28.0247C8.00254 27.5088 8.75452 27.4932 9.25585 27.9778C9.77284 28.4781 9.75717 29.2441 9.22452 29.7913C8.97385 30.0414 8.70752 30.2759 8.40986 30.5573C10.6345 32.4021 13.1255 33.4183 15.9924 33.7153C15.9924 33.3245 15.9924 32.9649 15.9924 32.6053C15.9924 31.8237 16.5407 31.2609 17.2614 31.2609C17.9664 31.2765 18.4834 31.8237 18.499 32.6053C18.499 33.3558 18.499 34.1218 18.499 34.8722C18.499 35.779 17.982 36.2792 17.0891 36.2636C9.80417 36.2167 3.36528 31.214 1.50097 24.1789C-0.786323 15.5491 4.32093 6.68488 12.9531 4.32421C13.1098 4.27731 13.2821 4.24605 13.4858 4.18351C13.4231 2.82339 13.8461 1.65087 14.9428 0.791028C15.6947 0.196952 16.5564 -0.0531852 17.4964 0.00934911C19.063 0.087517 21.1153 1.36947 21.0213 4.16788C21.7733 4.41802 22.541 4.63689 23.2616 4.93392C28.0712 6.95065 31.2985 10.4213 32.8651 15.3928C33.1001 16.1276 32.7398 16.8311 32.0661 17.0343C31.3768 17.2375 30.7188 16.878 30.4682 16.1432C30.4368 16.0494 30.4055 15.9712 30.3898 15.8774C29.8728 14.2359 29.0582 12.7351 27.9772 11.4062C27.9772 11.3593 27.9302 11.3124 27.8205 11.203ZM18.4677 3.77704C18.5617 3.4331 18.3894 3.01099 18.0134 2.74522C17.5904 2.43255 17.0264 2.43255 16.5877 2.71396C16.1961 2.97973 16.0081 3.40183 16.0864 3.77704C16.8854 3.77704 17.6687 3.77704 18.4677 3.77704Z" fill="#ECAD48"/>
<path d="M17.5752 24.4134C15.1626 24.4134 13.502 22.7249 13.502 20.63C13.5176 18.5664 15.2096 16.878 17.2776 16.9093C17.6379 16.9093 17.7946 16.8154 17.9512 16.5028C18.5779 15.2052 19.2359 13.9232 19.8782 12.6257C20.1445 12.0941 20.6615 11.8283 21.1942 11.9065C21.7268 11.9847 22.1811 12.3755 22.2438 12.9227C22.2751 13.2197 22.1968 13.5793 22.0715 13.8451C21.4605 15.1427 20.8025 16.409 20.1602 17.6909C20.0348 17.9411 20.0348 18.0974 20.2228 18.3319C21.1472 19.5513 21.3352 20.8958 20.6615 22.2872C19.9722 23.6786 18.7972 24.3508 17.5752 24.4134ZM18.5309 20.6613C18.5309 19.9891 17.9825 19.4106 17.2932 19.4106C16.6039 19.395 16.0399 19.9422 16.0242 20.63C16.0086 21.3179 16.5882 21.912 17.2776 21.912C17.9512 21.8964 18.5309 21.3336 18.5309 20.6613Z" fill="#ECAD48"/>
</svg>