<svg xmlns="http://www.w3.org/2000/svg" width="57" height="40" viewBox="0 0 57 40" fill="none">
<path d="M32.3552 20.1604C22.1544 19.612 12.8749 10.837 12.2168 1.52588e-05C21.6279 0.592322 29.3498 7.59032 31.6532 15.9045C27.4413 12.0655 22.1105 12.0655 20.8601 12.1313C25.5766 11.9778 32.3552 20.1604 32.3552 20.1604Z" fill="#ECAD48"/>
<path d="M56.0486 1.52588e-05C55.6537 9.65242 47.3395 19.1293 36.5244 20.1165C38.06 15.4877 47.866 7.37094 47.866 7.37094C37.0509 11.0783 35.954 19.612 35.9102 20.1384C36.7218 8.97237 45.9794 0.592322 56.0486 1.52588e-05Z" fill="#ECAD48"/>
<path d="M17.4152 32.5988C17.503 32.4891 17.5688 32.4014 17.6565 32.2917C18.9947 30.5806 19.2799 28.6721 18.3804 26.6977C17.4591 24.7014 15.8357 23.6484 13.62 23.5826C12.1941 23.5607 10.7682 23.5826 9.34228 23.5826C9.23259 23.5826 9.14484 23.6045 9.03516 23.6265V39.9917H12.3038V34.2441C12.7426 34.2441 13.1374 34.2222 13.5104 34.2441C14.695 34.288 15.5067 35.0777 15.5725 36.2404C15.6163 36.8327 15.5944 37.4031 15.5944 37.9954V39.9917C16.7132 39.9917 17.7662 39.9917 18.9069 39.9478C18.9069 38.9387 18.8631 37.9735 18.9069 36.9863C18.9508 35.341 18.5998 33.8493 17.4152 32.5988ZM15.5725 29.1327C15.4628 30.1419 14.6511 30.9097 13.642 30.9535C13.2252 30.9755 12.8084 30.9535 12.3257 30.9535C12.3257 29.5715 12.3258 28.2552 12.3477 26.9171C12.94 26.9171 13.5323 26.8293 14.0807 26.939C15.0679 27.1364 15.6822 28.1236 15.5725 29.1327Z" fill="#ECAD48"/>
<path d="M40.3852 23.6045C41.4601 23.6045 42.5131 23.6045 43.6319 23.6045C43.6319 23.8458 43.6319 24.0652 43.6319 24.2627C43.6319 26.0615 43.6539 27.8384 43.6319 29.6373C43.6319 30.0541 43.7416 30.1857 44.1584 30.1638C45.0579 30.1418 45.9354 30.1638 46.9225 30.1638C46.9225 29.045 46.9225 27.9481 46.9225 26.8513C46.9225 25.7763 46.9225 24.7014 46.9225 23.6045C48.0413 23.6045 49.0943 23.6045 50.1692 23.6045C50.1692 29.0669 50.1692 34.5293 50.1692 39.9917C49.0943 39.9917 48.0413 39.9917 46.9225 39.9917C46.9225 37.8199 46.9225 35.67 46.9225 33.4763C45.8257 33.4763 44.7727 33.4763 43.6319 33.4763C43.6319 35.6262 43.6319 37.798 43.6319 39.9917C42.5131 39.9917 41.4601 39.9917 40.3633 39.9917C40.3852 34.5293 40.3852 29.1108 40.3852 23.6045Z" fill="#ECAD48"/>
<path d="M29.6126 35.4726C30.6656 35.4726 31.7186 35.4726 32.8374 35.4726C32.8593 35.5384 32.8813 35.6481 32.9032 35.7359C33.1006 36.3501 33.5833 36.723 34.1536 36.723C34.6582 36.723 35.1628 36.372 35.3383 35.8894C35.5576 35.341 35.3821 34.7706 34.8776 34.3757C33.7368 33.4983 32.5522 32.6646 31.4115 31.7652C29.7223 30.449 29.1519 28.343 29.8978 26.4125C30.6656 24.482 32.5961 23.3413 34.724 23.5826C36.6545 23.78 38.3437 25.4253 38.6508 27.3997C38.6727 27.6191 38.6727 27.8384 38.6947 28.0797C37.5978 28.0797 36.5448 28.0797 35.4479 28.0797C35.3163 27.4874 35.0092 26.9829 34.3291 26.8732C33.7149 26.7854 33.1884 27.0926 32.969 27.641C32.7497 28.1894 32.8813 28.7598 33.4078 29.1547C34.5485 30.0322 35.7112 30.8877 36.8739 31.7652C38.3656 32.9279 38.9798 34.4635 38.6288 36.3062C38.2559 38.1709 37.0932 39.3775 35.2286 39.8601C32.3987 40.6059 29.4152 38.2586 29.6126 35.4726Z" fill="#ECAD48"/>
<path d="M27.9025 33.4544C26.8057 33.4544 25.7527 33.4544 24.6778 33.4544C24.6778 34.5512 24.6778 35.6042 24.6778 36.723C25.7527 36.723 26.8276 36.723 27.9025 36.723C27.9025 37.8418 27.9025 38.8948 27.9025 39.9917C25.7308 39.9917 23.559 39.9917 21.3652 39.9917C21.3652 34.5293 21.3652 29.0889 21.3652 23.6045C23.537 23.6045 25.6869 23.6045 27.8806 23.6045C27.8806 24.6575 27.8806 25.7105 27.8806 26.8513C26.8276 26.8513 25.7527 26.8513 24.6558 26.8513C24.6558 27.9701 24.6558 29.023 24.6558 30.1419C25.7308 30.1419 26.7837 30.1419 27.8806 30.1419C27.9025 31.2607 27.9025 32.3136 27.9025 33.4544Z" fill="#ECAD48"/>
<path d="M6.51342 26.8732C5.41656 26.8732 4.36357 26.8732 3.28864 26.8732C3.28864 27.9701 3.28864 29.023 3.28864 30.1419C4.36357 30.1419 5.41656 30.1419 6.51342 30.1419C6.51342 31.2607 6.51342 32.3136 6.51342 33.4324C5.43849 33.4324 4.38551 33.4324 3.2667 33.4324C3.2667 35.6481 3.2667 37.798 3.2667 39.9917C2.1479 39.9917 1.09491 39.9917 -0.00195312 39.9917C-0.00195312 34.5293 -0.00195312 29.0889 -0.00195312 23.6045C2.16984 23.6045 4.31969 23.6045 6.51342 23.6045C6.51342 24.6795 6.51342 25.7325 6.51342 26.8732Z" fill="#ECAD48"/>
</svg>