<svg xmlns="http://www.w3.org/2000/svg" width="38" height="40" viewBox="0 0 38 40" fill="none">
<path d="M36.3194 23.9588C35.7157 23.9588 35.3334 24.4016 35.3334 25.106C35.3334 26.1929 35.3133 27.2797 35.3334 28.3666C35.3334 28.749 35.2127 28.9301 34.8908 29.1113C30.1019 31.7278 25.3129 34.3644 20.524 36.981C20.3832 37.0615 20.2423 37.1218 20.0612 37.2225C20.0411 37.1017 20.0411 37.0212 20.0411 36.9407C20.0411 31.5869 20.0411 26.2331 20.0612 20.8995C20.0612 20.7183 20.2423 20.4768 20.4033 20.3762C21.7514 19.6113 23.0996 18.8868 24.4477 18.1421C24.5684 18.0817 24.7093 18.0213 24.9105 17.9408V18.5446C24.9105 19.6918 24.9105 20.819 24.9105 21.9662C24.9105 22.9726 25.6751 23.3952 26.5605 22.9323C27.6873 22.3285 28.8141 21.6844 29.961 21.0806C30.4439 20.819 30.6451 20.4567 30.6451 19.9132C30.625 18.3433 30.6451 16.7533 30.625 15.1834C30.625 14.9016 30.6854 14.7205 30.947 14.5796C32.3152 13.8349 33.6835 13.0902 35.0517 12.3455C35.1322 12.3052 35.2127 12.2851 35.3334 12.265C35.3334 13.7745 35.3334 15.2639 35.3334 16.7332C35.3334 17.4779 35.7157 17.9207 36.3194 17.9408C36.9431 17.9609 37.3456 17.498 37.3456 16.7131C37.3456 14.7003 37.3456 12.6876 37.3456 10.6749C37.3456 10.1315 37.1242 9.76923 36.6413 9.50758C30.9872 6.40802 25.3331 3.30846 19.6991 0.188774C19.2363 -0.0527504 18.8338 -0.0728774 18.371 0.188774C12.7169 3.30846 7.04265 6.42815 1.36839 9.52771C0.905597 9.78936 0.684261 10.1315 0.704383 10.6548C0.724504 11.2788 0.704383 11.8826 0.704383 12.5468V27.4408C0.704383 28.0848 0.724504 28.6886 0.704383 29.2924C0.684261 29.8359 0.905597 30.1981 1.38851 30.4799C7.06277 33.5795 12.7169 36.6992 18.3912 39.8189C18.8338 40.0604 19.2363 40.0604 19.6789 39.8189C25.3331 36.6992 31.0073 33.5795 36.6816 30.4799C37.1444 30.2384 37.3657 29.8761 37.3657 29.3528C37.3456 27.9641 37.3657 26.5753 37.3657 25.1865C37.3456 24.3814 36.9431 23.9386 36.3194 23.9588ZM28.5927 19.3296C28.5927 19.4302 28.472 19.5711 28.3714 19.6113C27.9287 19.873 27.4659 20.1145 26.9227 20.4164C26.9227 19.2088 26.9227 18.0817 26.9227 16.9747C26.9227 16.8741 27.0031 16.7533 27.0836 16.6929C27.5464 16.4111 28.0293 16.1696 28.5927 15.8476C28.5927 17.0753 28.6129 18.2024 28.5927 19.3296ZM18.8137 2.24173C18.9747 2.16122 19.2564 2.2216 19.4375 2.32224C23.2606 4.41545 27.0635 6.50866 30.8866 8.60187C31.9933 9.20568 33.0798 9.80949 34.2469 10.4536C32.7378 11.2989 31.2689 12.104 29.8 12.8688C29.6592 12.9292 29.3976 12.8285 29.2165 12.7279C25.7154 10.8158 22.2344 8.90377 18.7332 6.97158C17.3247 6.20675 15.9162 5.4218 14.4473 4.61672C15.9565 3.79151 17.365 2.98643 18.8137 2.24173ZM10.8657 6.58916C12.2944 5.7237 12.2943 5.74383 13.7833 6.54891C18.1296 8.94403 22.4959 11.3391 26.8623 13.7343C27.0635 13.8349 27.2647 13.9556 27.5665 14.1368C27.0031 14.4387 26.5403 14.7205 26.0172 14.962C25.8965 15.0224 25.6751 14.9016 25.5343 14.8211C20.9667 12.3254 16.3991 9.80949 11.8517 7.31374C11.5096 7.11247 11.1474 6.93132 10.7651 6.70993C10.8255 6.60929 10.8456 6.60929 10.8657 6.58916ZM18.029 36.9206C18.029 37.0011 18.029 37.0816 18.0088 37.2426C16.0369 36.1557 14.1254 35.1091 12.2139 34.0625C9.19564 32.4121 6.1573 30.7416 3.13908 29.0912C2.89762 28.9503 2.73665 28.8295 2.73665 28.4874C2.73665 23.1537 2.73665 17.82 2.73665 12.4864C2.73665 12.4059 2.73665 12.3254 2.75677 12.2046C2.8775 12.265 2.99823 12.2851 3.09884 12.3455C7.92799 15.0023 12.7773 17.659 17.6265 20.3158C17.868 20.4567 18.0491 20.5774 18.0491 20.9196C18.029 26.2533 18.029 31.5869 18.029 36.9206ZM19.2765 18.6452C19.1155 18.7258 18.8338 18.6654 18.6527 18.5647C15.1918 16.6929 11.7511 14.7809 8.29018 12.8889C6.82131 12.0838 5.35244 11.2788 3.84333 10.4334C4.10491 10.2724 4.34637 10.1516 4.56771 10.0309C5.79511 9.34657 7.02252 8.66225 8.27006 8.01818C8.43103 7.93767 8.71273 7.89742 8.85358 7.97793C13.7833 10.6749 18.7131 13.3921 23.6429 16.0891C23.663 16.1092 23.6831 16.1294 23.7435 16.2099C22.2545 17.0351 20.7655 17.8603 19.2765 18.6452Z" fill="#ECAD48"/>
<path d="M36.3803 19.9334C36.9236 19.9535 37.3461 20.3963 37.3461 20.9398C37.326 21.5033 36.8632 21.9461 36.2998 21.926C35.7565 21.9059 35.334 21.4429 35.334 20.9196C35.3541 20.336 35.8169 19.9133 36.3803 19.9334Z" fill="#ECAD48"/>
</svg>